<svg xmlns="http://www.w3.org/2000/svg" xmlns:xlink="http://www.w3.org/1999/xlink" width="500" zoomAndPan="magnify" viewBox="0 0 375 374.999991" height="500" preserveAspectRatio="xMidYMid meet" version="1.0"><defs><g/></defs><g fill="#ffffff" fill-opacity="1"><g transform="translate(45.937837, 200.26774)"><g><path d="M 11.515625 -20.453125 C 12.859375 -20.453125 14.144531 -20.207031 15.375 -19.71875 C 16.601562 -19.226562 17.675781 -18.539062 18.59375 -17.65625 C 19.519531 -16.78125 20.265625 -15.738281 20.828125 -14.53125 C 21.390625 -13.320312 21.671875 -12.019531 21.671875 -10.625 L 21.671875 -2.859375 C 21.671875 -2.128906 21.410156 -1.5 20.890625 -0.96875 C 20.378906 -0.4375 19.742188 -0.15625 18.984375 -0.125 C 18.222656 -0.125 17.570312 -0.367188 17.03125 -0.859375 C 16.488281 -1.347656 16.21875 -1.972656 16.21875 -2.734375 L 16.21875 -10.296875 C 16.21875 -10.929688 16.097656 -11.535156 15.859375 -12.109375 C 15.617188 -12.691406 15.28125 -13.191406 14.84375 -13.609375 C 14.414062 -14.023438 13.910156 -14.359375 13.328125 -14.609375 C 12.753906 -14.867188 12.132812 -15 11.46875 -15 C 10.851562 -15 10.265625 -14.878906 9.703125 -14.640625 C 9.140625 -14.398438 8.648438 -14.082031 8.234375 -13.6875 C 7.816406 -13.300781 7.476562 -12.828125 7.21875 -12.265625 C 6.96875 -11.703125 6.84375 -11.113281 6.84375 -10.5 L 6.84375 -2.859375 C 6.84375 -2.128906 6.5625 -1.488281 6 -0.9375 C 5.445312 -0.394531 4.804688 -0.125 4.078125 -0.125 C 3.347656 -0.125 2.703125 -0.375 2.140625 -0.875 C 1.578125 -1.382812 1.296875 -2.003906 1.296875 -2.734375 L 1.296875 -10.296875 C 1.328125 -11.691406 1.597656 -13.003906 2.109375 -14.234375 C 2.628906 -15.472656 3.34375 -16.550781 4.25 -17.46875 C 5.164062 -18.394531 6.238281 -19.125 7.46875 -19.65625 C 8.707031 -20.1875 10.054688 -20.453125 11.515625 -20.453125 Z M 11.515625 -20.453125 "/></g></g></g><g fill="#ffffff" fill-opacity="1"><g transform="translate(68.911839, 200.26774)"><g><path d="M 11.21875 -20.328125 C 12.5625 -20.328125 13.847656 -20.046875 15.078125 -19.484375 C 16.304688 -18.921875 17.390625 -18.171875 18.328125 -17.234375 C 19.265625 -16.296875 20.015625 -15.21875 20.578125 -14 C 21.140625 -12.789062 21.421875 -11.507812 21.421875 -10.15625 C 21.421875 -9.4375 21.144531 -8.863281 20.59375 -8.4375 C 20.050781 -8.019531 19.375 -7.828125 18.5625 -7.859375 L 7.390625 -7.859375 C 8.316406 -6.253906 9.59375 -5.453125 11.21875 -5.453125 C 11.664062 -5.453125 12.039062 -5.492188 12.34375 -5.578125 C 12.65625 -5.671875 12.929688 -5.769531 13.171875 -5.875 C 13.410156 -5.988281 13.644531 -6.085938 13.875 -6.171875 C 14.113281 -6.253906 14.390625 -6.296875 14.703125 -6.296875 C 15.285156 -6.273438 15.796875 -6.109375 16.234375 -5.796875 C 16.671875 -5.484375 16.992188 -5.097656 17.203125 -4.640625 C 17.410156 -4.179688 17.476562 -3.6875 17.40625 -3.15625 C 17.332031 -2.625 17.085938 -2.132812 16.671875 -1.6875 C 15.921875 -1.0625 15.082031 -0.628906 14.15625 -0.390625 C 13.226562 -0.160156 12.25 -0.03125 11.21875 0 C 9.875 0.0507812 8.582031 -0.191406 7.34375 -0.734375 C 6.113281 -1.273438 5.03125 -2.015625 4.09375 -2.953125 C 3.15625 -3.898438 2.410156 -5 1.859375 -6.25 C 1.316406 -7.507812 1.046875 -8.8125 1.046875 -10.15625 C 1.046875 -11.476562 1.316406 -12.753906 1.859375 -13.984375 C 2.410156 -15.210938 3.144531 -16.296875 4.0625 -17.234375 C 4.988281 -18.171875 6.066406 -18.921875 7.296875 -19.484375 C 8.535156 -20.046875 9.84375 -20.328125 11.21875 -20.328125 Z M 15.03125 -12.515625 C 14.5625 -13.378906 14.003906 -13.988281 13.359375 -14.34375 C 12.710938 -14.695312 12 -14.875 11.21875 -14.875 C 10.40625 -14.875 9.679688 -14.695312 9.046875 -14.34375 C 8.421875 -13.988281 7.867188 -13.378906 7.390625 -12.515625 Z M 15.03125 -12.515625 "/></g></g></g><g fill="#ffffff" fill-opacity="1"><g transform="translate(91.171832, 200.26774)"><g><path d="M 17.171875 -19.53125 C 17.703125 -20.0625 18.328125 -20.316406 19.046875 -20.296875 C 19.765625 -20.285156 20.398438 -20.015625 20.953125 -19.484375 C 21.460938 -18.984375 21.71875 -18.351562 21.71875 -17.59375 C 21.71875 -16.84375 21.460938 -16.203125 20.953125 -15.671875 L 15.5 -10.15625 L 20.953125 -4.65625 C 21.460938 -4.15625 21.726562 -3.519531 21.75 -2.75 C 21.78125 -1.976562 21.515625 -1.3125 20.953125 -0.75 C 20.453125 -0.25 19.816406 0 19.046875 0 C 18.273438 0 17.609375 -0.289062 17.046875 -0.875 L 11.59375 -6.265625 L 6.125 -0.75 C 5.625 -0.300781 4.992188 -0.0507812 4.234375 0 C 3.484375 0.0507812 2.828125 -0.195312 2.265625 -0.75 C 1.765625 -1.257812 1.492188 -1.882812 1.453125 -2.625 C 1.410156 -3.363281 1.65625 -4.015625 2.1875 -4.578125 L 7.765625 -10.15625 L 2.1875 -15.75 C 1.65625 -16.28125 1.414062 -16.894531 1.46875 -17.59375 C 1.519531 -18.289062 1.785156 -18.921875 2.265625 -19.484375 C 2.878906 -20.097656 3.535156 -20.378906 4.234375 -20.328125 C 4.941406 -20.273438 5.570312 -19.992188 6.125 -19.484375 L 11.59375 -14.03125 Z M 17.171875 -19.53125 "/></g></g></g><g fill="#ffffff" fill-opacity="1"><g transform="translate(114.313833, 200.26774)"><g><path d="M 4.03125 -20.375 C 4.757812 -20.375 5.398438 -20.097656 5.953125 -19.546875 C 6.515625 -19.003906 6.796875 -18.34375 6.796875 -17.5625 L 6.796875 -10.15625 C 6.796875 -9.519531 6.921875 -8.910156 7.171875 -8.328125 C 7.429688 -7.753906 7.769531 -7.257812 8.1875 -6.84375 C 8.601562 -6.425781 9.097656 -6.085938 9.671875 -5.828125 C 10.253906 -5.578125 10.867188 -5.453125 11.515625 -5.453125 C 12.128906 -5.453125 12.710938 -5.5625 13.265625 -5.78125 C 13.828125 -6.007812 14.320312 -6.320312 14.75 -6.71875 C 15.1875 -7.113281 15.53125 -7.585938 15.78125 -8.140625 C 16.039062 -8.703125 16.171875 -9.304688 16.171875 -9.953125 L 16.171875 -17.59375 C 16.171875 -18.289062 16.4375 -18.921875 16.96875 -19.484375 C 17.5 -20.046875 18.144531 -20.34375 18.90625 -20.375 C 19.65625 -20.375 20.300781 -20.097656 20.84375 -19.546875 C 21.394531 -19.003906 21.6875 -18.394531 21.71875 -17.71875 L 21.71875 -10.15625 C 21.71875 -8.757812 21.453125 -7.445312 20.921875 -6.21875 C 20.390625 -4.988281 19.660156 -3.910156 18.734375 -2.984375 C 17.804688 -2.054688 16.726562 -1.328125 15.5 -0.796875 C 14.269531 -0.265625 12.941406 0 11.515625 0 C 10.160156 0.0507812 8.867188 -0.175781 7.640625 -0.6875 C 6.410156 -1.207031 5.328125 -1.921875 4.390625 -2.828125 C 3.453125 -3.742188 2.703125 -4.8125 2.140625 -6.03125 C 1.578125 -7.25 1.296875 -8.53125 1.296875 -9.875 L 1.296875 -17.59375 C 1.296875 -18.320312 1.554688 -18.957031 2.078125 -19.5 C 2.597656 -20.050781 3.25 -20.34375 4.03125 -20.375 Z M 4.03125 -20.375 "/></g></g></g><g fill="#ffffff" fill-opacity="1"><g transform="translate(137.329834, 200.26774)"><g><path d="M 22.71875 -17.390625 C 23.675781 -16.429688 24.410156 -15.34375 24.921875 -14.125 C 25.441406 -12.914062 25.710938 -11.671875 25.734375 -10.390625 C 25.765625 -9.117188 25.554688 -7.851562 25.109375 -6.59375 C 24.660156 -5.332031 23.945312 -4.210938 22.96875 -3.234375 L 22.515625 -2.765625 C 21.503906 -1.867188 20.46875 -1.195312 19.40625 -0.75 C 18.195312 -0.25 16.878906 -0.015625 15.453125 -0.046875 C 14.023438 -0.046875 12.722656 -0.296875 11.546875 -0.796875 C 10.367188 -1.296875 9.304688 -2.023438 8.359375 -2.984375 C 8.128906 -3.265625 7.953125 -3.554688 7.828125 -3.859375 C 7.703125 -4.171875 7.65625 -4.492188 7.6875 -4.828125 C 7.71875 -5.160156 7.800781 -5.488281 7.9375 -5.8125 C 8.070312 -6.132812 8.269531 -6.410156 8.53125 -6.640625 C 9.03125 -7.171875 9.664062 -7.4375 10.4375 -7.4375 C 11.207031 -7.4375 11.859375 -7.171875 12.390625 -6.640625 C 13.203125 -5.878906 14.222656 -5.5 15.453125 -5.5 C 16.128906 -5.46875 16.742188 -5.578125 17.296875 -5.828125 C 17.859375 -6.085938 18.363281 -6.425781 18.8125 -6.84375 C 19.257812 -7.257812 19.601562 -7.757812 19.84375 -8.34375 C 20.082031 -8.9375 20.203125 -9.554688 20.203125 -10.203125 L 20.203125 -10.453125 C 20.171875 -10.960938 20.054688 -11.46875 19.859375 -11.96875 C 19.640625 -12.53125 19.289062 -13.050781 18.8125 -13.53125 C 18.394531 -13.976562 17.898438 -14.3125 17.328125 -14.53125 C 16.753906 -14.757812 16.175781 -14.882812 15.59375 -14.90625 C 15.019531 -14.9375 14.445312 -14.835938 13.875 -14.609375 C 13.300781 -14.390625 12.804688 -14.070312 12.390625 -13.65625 L 5.375 -6.640625 C 4.875 -6.128906 4.226562 -5.875 3.4375 -5.875 C 2.65625 -5.875 2.015625 -6.140625 1.515625 -6.671875 C 0.984375 -7.179688 0.695312 -7.8125 0.65625 -8.5625 C 0.613281 -9.320312 0.859375 -9.953125 1.390625 -10.453125 L 8.3125 -17.390625 C 9.320312 -18.367188 10.441406 -19.109375 11.671875 -19.609375 C 12.910156 -20.117188 14.179688 -20.378906 15.484375 -20.390625 C 16.785156 -20.398438 18.054688 -20.15625 19.296875 -19.65625 C 20.546875 -19.15625 21.6875 -18.398438 22.71875 -17.390625 Z M 22.71875 -17.390625 "/></g></g></g><g fill="#ffffff" fill-opacity="1"><g transform="translate(165.041347, 200.282228)"><g><path d="M 2.359375 -21.765625 C 2.359375 -21.992188 2.429688 -22.179688 2.578125 -22.328125 C 2.722656 -22.484375 2.898438 -22.5625 3.109375 -22.5625 C 3.347656 -22.5625 3.535156 -22.484375 3.671875 -22.328125 C 3.816406 -22.179688 3.890625 -21.992188 3.890625 -21.765625 L 3.890625 -12.96875 C 4.253906 -13.5 4.6875 -13.976562 5.1875 -14.40625 C 5.6875 -14.84375 6.226562 -15.21875 6.8125 -15.53125 C 7.394531 -15.84375 8.015625 -16.078125 8.671875 -16.234375 C 9.328125 -16.398438 10.003906 -16.484375 10.703125 -16.484375 C 11.859375 -16.484375 12.941406 -16.265625 13.953125 -15.828125 C 14.972656 -15.398438 15.859375 -14.8125 16.609375 -14.0625 C 17.367188 -13.3125 17.960938 -12.425781 18.390625 -11.40625 C 18.828125 -10.394531 19.046875 -9.3125 19.046875 -8.15625 C 19.046875 -7 18.828125 -5.910156 18.390625 -4.890625 C 17.960938 -3.878906 17.367188 -2.992188 16.609375 -2.234375 C 15.859375 -1.484375 14.972656 -0.882812 13.953125 -0.4375 C 12.941406 0.0078125 11.859375 0.234375 10.703125 0.234375 C 9.554688 0.234375 8.476562 0.0078125 7.46875 -0.4375 C 6.457031 -0.882812 5.570312 -1.484375 4.8125 -2.234375 C 4.050781 -2.992188 3.453125 -3.878906 3.015625 -4.890625 C 2.578125 -5.910156 2.359375 -7 2.359375 -8.15625 Z M 3.890625 -8.15625 C 3.890625 -7.226562 4.066406 -6.347656 4.421875 -5.515625 C 4.773438 -4.679688 5.257812 -3.953125 5.875 -3.328125 C 6.488281 -2.703125 7.207031 -2.207031 8.03125 -1.84375 C 8.863281 -1.476562 9.753906 -1.296875 10.703125 -1.296875 C 11.671875 -1.296875 12.566406 -1.476562 13.390625 -1.84375 C 14.222656 -2.207031 14.941406 -2.703125 15.546875 -3.328125 C 16.160156 -3.953125 16.640625 -4.679688 16.984375 -5.515625 C 17.335938 -6.347656 17.515625 -7.226562 17.515625 -8.15625 C 17.515625 -9.101562 17.335938 -9.988281 16.984375 -10.8125 C 16.640625 -11.644531 16.160156 -12.363281 15.546875 -12.96875 C 14.929688 -13.582031 14.207031 -14.066406 13.375 -14.421875 C 12.550781 -14.785156 11.660156 -14.96875 10.703125 -14.96875 C 9.753906 -14.96875 8.863281 -14.785156 8.03125 -14.421875 C 7.207031 -14.066406 6.488281 -13.582031 5.875 -12.96875 C 5.257812 -12.363281 4.773438 -11.644531 4.421875 -10.8125 C 4.066406 -9.988281 3.890625 -9.101562 3.890625 -8.15625 Z M 3.890625 -8.15625 "/></g></g></g><g fill="#ffffff" fill-opacity="1"><g transform="translate(185.126813, 200.282228)"><g><path d="M 1.046875 -8.125 C 1.046875 -9.28125 1.265625 -10.367188 1.703125 -11.390625 C 2.140625 -12.410156 2.738281 -13.296875 3.5 -14.046875 C 4.257812 -14.796875 5.144531 -15.390625 6.15625 -15.828125 C 7.175781 -16.265625 8.253906 -16.484375 9.390625 -16.484375 C 10.546875 -16.484375 11.625 -16.265625 12.625 -15.828125 C 13.632812 -15.398438 14.515625 -14.8125 15.265625 -14.0625 C 16.015625 -13.3125 16.609375 -12.429688 17.046875 -11.421875 C 17.484375 -10.421875 17.710938 -9.34375 17.734375 -8.1875 L 17.734375 -0.8125 C 17.734375 -0.570312 17.660156 -0.375 17.515625 -0.21875 C 17.378906 -0.0703125 17.191406 0 16.953125 0 C 16.734375 0 16.554688 -0.0703125 16.421875 -0.21875 C 16.285156 -0.375 16.21875 -0.570312 16.21875 -0.8125 L 16.203125 -3.4375 C 15.828125 -2.894531 15.390625 -2.398438 14.890625 -1.953125 C 14.398438 -1.503906 13.863281 -1.117188 13.28125 -0.796875 C 12.707031 -0.472656 12.09375 -0.21875 11.4375 -0.03125 C 10.78125 0.144531 10.097656 0.234375 9.390625 0.234375 C 8.253906 0.234375 7.175781 0.015625 6.15625 -0.421875 C 5.144531 -0.859375 4.257812 -1.457031 3.5 -2.21875 C 2.738281 -2.976562 2.140625 -3.863281 1.703125 -4.875 C 1.265625 -5.894531 1.046875 -6.976562 1.046875 -8.125 Z M 2.578125 -8.125 C 2.578125 -7.195312 2.753906 -6.316406 3.109375 -5.484375 C 3.460938 -4.660156 3.945312 -3.9375 4.5625 -3.3125 C 5.175781 -2.6875 5.894531 -2.191406 6.71875 -1.828125 C 7.550781 -1.472656 8.441406 -1.296875 9.390625 -1.296875 C 10.359375 -1.296875 11.253906 -1.472656 12.078125 -1.828125 C 12.910156 -2.191406 13.632812 -2.6875 14.25 -3.3125 C 14.863281 -3.9375 15.34375 -4.660156 15.6875 -5.484375 C 16.039062 -6.316406 16.21875 -7.195312 16.21875 -8.125 C 16.21875 -9.0625 16.039062 -9.945312 15.6875 -10.78125 C 15.34375 -11.625 14.863281 -12.351562 14.25 -12.96875 C 13.632812 -13.582031 12.910156 -14.066406 12.078125 -14.421875 C 11.253906 -14.785156 10.359375 -14.96875 9.390625 -14.96875 C 8.453125 -14.96875 7.566406 -14.785156 6.734375 -14.421875 C 5.898438 -14.066406 5.175781 -13.582031 4.5625 -12.96875 C 3.945312 -12.351562 3.460938 -11.625 3.109375 -10.78125 C 2.753906 -9.945312 2.578125 -9.0625 2.578125 -8.125 Z M 2.578125 -8.125 "/></g></g></g><g fill="#ffffff" fill-opacity="1"><g transform="translate(204.932335, 200.282228)"><g><path d="M 6.234375 -7.96875 C 5.691406 -8.132812 5.15625 -8.332031 4.625 -8.5625 C 4.09375 -8.789062 3.617188 -9.070312 3.203125 -9.40625 C 2.785156 -9.75 2.445312 -10.15625 2.1875 -10.625 C 1.925781 -11.09375 1.796875 -11.644531 1.796875 -12.28125 C 1.796875 -13 1.945312 -13.617188 2.25 -14.140625 C 2.5625 -14.660156 2.960938 -15.097656 3.453125 -15.453125 C 3.953125 -15.804688 4.515625 -16.066406 5.140625 -16.234375 C 5.773438 -16.398438 6.414062 -16.484375 7.0625 -16.484375 C 8.09375 -16.484375 9.035156 -16.289062 9.890625 -15.90625 C 10.753906 -15.53125 11.410156 -14.929688 11.859375 -14.109375 C 11.941406 -13.941406 11.972656 -13.78125 11.953125 -13.625 C 11.929688 -13.476562 11.875 -13.359375 11.78125 -13.265625 C 11.632812 -13.128906 11.476562 -13.0625 11.3125 -13.0625 C 11.21875 -13.0625 11.109375 -13.085938 10.984375 -13.140625 C 10.472656 -13.828125 9.914062 -14.3125 9.3125 -14.59375 C 8.707031 -14.875 7.988281 -15.015625 7.15625 -15.015625 C 6.71875 -15.015625 6.269531 -14.96875 5.8125 -14.875 C 5.351562 -14.78125 4.941406 -14.628906 4.578125 -14.421875 C 4.210938 -14.210938 3.910156 -13.929688 3.671875 -13.578125 C 3.441406 -13.234375 3.328125 -12.800781 3.328125 -12.28125 C 3.328125 -11.832031 3.425781 -11.445312 3.625 -11.125 C 3.820312 -10.800781 4.085938 -10.519531 4.421875 -10.28125 C 4.765625 -10.050781 5.15625 -9.851562 5.59375 -9.6875 C 6.039062 -9.53125 6.503906 -9.378906 6.984375 -9.234375 C 7.753906 -9.003906 8.488281 -8.757812 9.1875 -8.5 C 9.882812 -8.238281 10.5 -7.921875 11.03125 -7.546875 C 11.5625 -7.179688 11.976562 -6.75 12.28125 -6.25 C 12.59375 -5.75 12.75 -5.140625 12.75 -4.421875 C 12.75 -3.765625 12.601562 -3.148438 12.3125 -2.578125 C 12.019531 -2.015625 11.617188 -1.523438 11.109375 -1.109375 C 10.609375 -0.691406 10.019531 -0.363281 9.34375 -0.125 C 8.664062 0.113281 7.941406 0.234375 7.171875 0.234375 C 6.566406 0.234375 5.972656 0.171875 5.390625 0.046875 C 4.816406 -0.0664062 4.28125 -0.242188 3.78125 -0.484375 C 3.289062 -0.722656 2.851562 -1.019531 2.46875 -1.375 C 2.082031 -1.738281 1.765625 -2.164062 1.515625 -2.65625 C 1.367188 -2.957031 1.359375 -3.210938 1.484375 -3.421875 C 1.617188 -3.640625 1.8125 -3.75 2.0625 -3.75 C 2.332031 -3.75 2.578125 -3.632812 2.796875 -3.40625 C 3.191406 -2.707031 3.765625 -2.171875 4.515625 -1.796875 C 5.273438 -1.429688 6.164062 -1.25 7.1875 -1.25 C 7.71875 -1.25 8.222656 -1.328125 8.703125 -1.484375 C 9.191406 -1.640625 9.625 -1.859375 10 -2.140625 C 10.375 -2.421875 10.671875 -2.753906 10.890625 -3.140625 C 11.117188 -3.535156 11.234375 -3.960938 11.234375 -4.421875 C 11.234375 -4.898438 11.09375 -5.316406 10.8125 -5.671875 C 10.539062 -6.035156 10.175781 -6.351562 9.71875 -6.625 C 9.257812 -6.90625 8.726562 -7.148438 8.125 -7.359375 C 7.53125 -7.578125 6.898438 -7.78125 6.234375 -7.96875 Z M 6.234375 -7.96875 "/></g></g></g><g fill="#ffffff" fill-opacity="1"><g transform="translate(218.964164, 200.282228)"><g><path d="M 7.625 -9.5 L 14.875 -1.265625 C 15 -1.117188 15.066406 -0.9375 15.078125 -0.71875 C 15.097656 -0.507812 15.023438 -0.332031 14.859375 -0.1875 C 14.691406 -0.0507812 14.515625 0.015625 14.328125 0.015625 C 14.117188 0.015625 13.941406 -0.0546875 13.796875 -0.203125 L 6.5625 -8.5 L 3.890625 -5.953125 L 3.890625 -0.765625 C 3.890625 -0.546875 3.816406 -0.363281 3.671875 -0.21875 C 3.523438 -0.0703125 3.34375 0 3.125 0 C 2.914062 0 2.734375 -0.0703125 2.578125 -0.21875 C 2.429688 -0.375 2.359375 -0.554688 2.359375 -0.765625 L 2.359375 -21.78125 C 2.359375 -22.007812 2.4375 -22.195312 2.59375 -22.34375 C 2.75 -22.488281 2.925781 -22.5625 3.125 -22.5625 C 3.351562 -22.5625 3.535156 -22.488281 3.671875 -22.34375 C 3.816406 -22.195312 3.890625 -22.007812 3.890625 -21.78125 L 3.890625 -7.921875 L 12.34375 -16.046875 C 12.488281 -16.203125 12.65625 -16.28125 12.84375 -16.28125 C 13.050781 -16.28125 13.226562 -16.195312 13.375 -16.03125 C 13.394531 -16.007812 13.40625 -15.984375 13.40625 -15.953125 C 13.53125 -15.816406 13.585938 -15.648438 13.578125 -15.453125 C 13.566406 -15.253906 13.492188 -15.09375 13.359375 -14.96875 Z M 7.625 -9.5 "/></g></g></g><g fill="#ffffff" fill-opacity="1"><g transform="translate(234.833078, 200.282228)"><g><path d="M 2.734375 -7.421875 C 2.796875 -6.566406 3.007812 -5.765625 3.375 -5.015625 C 3.75 -4.273438 4.234375 -3.625 4.828125 -3.0625 C 5.421875 -2.507812 6.109375 -2.078125 6.890625 -1.765625 C 7.671875 -1.453125 8.503906 -1.296875 9.390625 -1.296875 C 9.878906 -1.296875 10.363281 -1.347656 10.84375 -1.453125 C 11.332031 -1.554688 11.800781 -1.707031 12.25 -1.90625 C 12.695312 -2.113281 13.109375 -2.359375 13.484375 -2.640625 C 13.859375 -2.929688 14.1875 -3.257812 14.46875 -3.625 C 14.65625 -3.769531 14.84375 -3.84375 15.03125 -3.84375 C 15.0625 -3.84375 15.09375 -3.835938 15.125 -3.828125 C 15.15625 -3.828125 15.1875 -3.820312 15.21875 -3.8125 C 15.34375 -3.769531 15.457031 -3.675781 15.5625 -3.53125 C 15.675781 -3.40625 15.738281 -3.238281 15.75 -3.03125 C 15.757812 -2.832031 15.671875 -2.644531 15.484375 -2.46875 C 14.785156 -1.6875 13.925781 -1.039062 12.90625 -0.53125 C 11.894531 -0.0195312 10.722656 0.234375 9.390625 0.234375 C 8.242188 0.234375 7.164062 0.015625 6.15625 -0.421875 C 5.144531 -0.859375 4.257812 -1.457031 3.5 -2.21875 C 2.738281 -2.976562 2.140625 -3.863281 1.703125 -4.875 C 1.265625 -5.894531 1.046875 -6.984375 1.046875 -8.140625 C 1.046875 -9.296875 1.265625 -10.375 1.703125 -11.375 C 2.140625 -12.382812 2.738281 -13.269531 3.5 -14.03125 C 4.257812 -14.789062 5.144531 -15.390625 6.15625 -15.828125 C 7.164062 -16.265625 8.242188 -16.484375 9.390625 -16.484375 C 10.546875 -16.484375 11.628906 -16.265625 12.640625 -15.828125 C 13.648438 -15.390625 14.53125 -14.796875 15.28125 -14.046875 C 16.039062 -13.296875 16.640625 -12.414062 17.078125 -11.40625 C 17.523438 -10.394531 17.75 -9.316406 17.75 -8.171875 C 17.75 -7.960938 17.679688 -7.785156 17.546875 -7.640625 C 17.410156 -7.492188 17.234375 -7.421875 17.015625 -7.421875 Z M 16.1875 -8.71875 C 16.125 -9.59375 15.90625 -10.410156 15.53125 -11.171875 C 15.164062 -11.929688 14.675781 -12.59375 14.0625 -13.15625 C 13.445312 -13.71875 12.742188 -14.160156 11.953125 -14.484375 C 11.160156 -14.804688 10.316406 -14.96875 9.421875 -14.96875 C 8.503906 -14.96875 7.648438 -14.804688 6.859375 -14.484375 C 6.066406 -14.160156 5.367188 -13.710938 4.765625 -13.140625 C 4.171875 -12.578125 3.6875 -11.914062 3.3125 -11.15625 C 2.945312 -10.40625 2.734375 -9.59375 2.671875 -8.71875 Z M 16.1875 -8.71875 "/></g></g></g><g fill="#ffffff" fill-opacity="1"><g transform="translate(253.483868, 200.282228)"><g><path d="M 3.59375 -16.25 L 11.90625 -16.25 C 12.113281 -16.25 12.296875 -16.175781 12.453125 -16.03125 C 12.609375 -15.882812 12.6875 -15.707031 12.6875 -15.5 C 12.6875 -15.289062 12.613281 -15.113281 12.46875 -14.96875 C 12.320312 -14.820312 12.132812 -14.75 11.90625 -14.75 L 3.59375 -14.75 L 3.59375 -7.90625 C 3.59375 -6.976562 3.769531 -6.109375 4.125 -5.296875 C 4.476562 -4.492188 4.96875 -3.796875 5.59375 -3.203125 C 6.21875 -2.609375 6.945312 -2.140625 7.78125 -1.796875 C 8.613281 -1.460938 9.507812 -1.296875 10.46875 -1.296875 C 11.332031 -1.296875 12.128906 -1.421875 12.859375 -1.671875 C 13.585938 -1.929688 14.28125 -2.351562 14.9375 -2.9375 C 15.007812 -3.007812 15.101562 -3.070312 15.21875 -3.125 C 15.28125 -3.15625 15.332031 -3.175781 15.375 -3.1875 C 15.425781 -3.195312 15.484375 -3.203125 15.546875 -3.203125 C 15.710938 -3.203125 15.863281 -3.144531 16 -3.03125 C 16.164062 -2.863281 16.234375 -2.660156 16.203125 -2.421875 C 16.179688 -2.191406 16.085938 -2 15.921875 -1.84375 C 15.210938 -1.164062 14.390625 -0.648438 13.453125 -0.296875 C 12.523438 0.0546875 11.53125 0.234375 10.46875 0.234375 C 9.3125 0.234375 8.222656 0.0234375 7.203125 -0.390625 C 6.179688 -0.804688 5.285156 -1.375 4.515625 -2.09375 C 3.753906 -2.820312 3.15625 -3.679688 2.71875 -4.671875 C 2.28125 -5.671875 2.0625 -6.75 2.0625 -7.90625 L 2.0625 -21.28125 C 2.0625 -21.5 2.132812 -21.679688 2.28125 -21.828125 C 2.4375 -21.984375 2.617188 -22.0625 2.828125 -22.0625 C 3.054688 -22.0625 3.238281 -21.988281 3.375 -21.84375 C 3.519531 -21.695312 3.59375 -21.507812 3.59375 -21.28125 Z M 3.59375 -16.25 "/></g></g></g><g fill="#ffffff" fill-opacity="1"><g transform="translate(270.350056, 200.282228)"><g><path d="M 2.359375 -21.765625 C 2.359375 -21.992188 2.429688 -22.179688 2.578125 -22.328125 C 2.722656 -22.484375 2.898438 -22.5625 3.109375 -22.5625 C 3.347656 -22.5625 3.535156 -22.484375 3.671875 -22.328125 C 3.816406 -22.179688 3.890625 -21.992188 3.890625 -21.765625 L 3.890625 -12.96875 C 4.253906 -13.5 4.6875 -13.976562 5.1875 -14.40625 C 5.6875 -14.84375 6.226562 -15.21875 6.8125 -15.53125 C 7.394531 -15.84375 8.015625 -16.078125 8.671875 -16.234375 C 9.328125 -16.398438 10.003906 -16.484375 10.703125 -16.484375 C 11.859375 -16.484375 12.941406 -16.265625 13.953125 -15.828125 C 14.972656 -15.398438 15.859375 -14.8125 16.609375 -14.0625 C 17.367188 -13.3125 17.960938 -12.425781 18.390625 -11.40625 C 18.828125 -10.394531 19.046875 -9.3125 19.046875 -8.15625 C 19.046875 -7 18.828125 -5.910156 18.390625 -4.890625 C 17.960938 -3.878906 17.367188 -2.992188 16.609375 -2.234375 C 15.859375 -1.484375 14.972656 -0.882812 13.953125 -0.4375 C 12.941406 0.0078125 11.859375 0.234375 10.703125 0.234375 C 9.554688 0.234375 8.476562 0.0078125 7.46875 -0.4375 C 6.457031 -0.882812 5.570312 -1.484375 4.8125 -2.234375 C 4.050781 -2.992188 3.453125 -3.878906 3.015625 -4.890625 C 2.578125 -5.910156 2.359375 -7 2.359375 -8.15625 Z M 3.890625 -8.15625 C 3.890625 -7.226562 4.066406 -6.347656 4.421875 -5.515625 C 4.773438 -4.679688 5.257812 -3.953125 5.875 -3.328125 C 6.488281 -2.703125 7.207031 -2.207031 8.03125 -1.84375 C 8.863281 -1.476562 9.753906 -1.296875 10.703125 -1.296875 C 11.671875 -1.296875 12.566406 -1.476562 13.390625 -1.84375 C 14.222656 -2.207031 14.941406 -2.703125 15.546875 -3.328125 C 16.160156 -3.953125 16.640625 -4.679688 16.984375 -5.515625 C 17.335938 -6.347656 17.515625 -7.226562 17.515625 -8.15625 C 17.515625 -9.101562 17.335938 -9.988281 16.984375 -10.8125 C 16.640625 -11.644531 16.160156 -12.363281 15.546875 -12.96875 C 14.929688 -13.582031 14.207031 -14.066406 13.375 -14.421875 C 12.550781 -14.785156 11.660156 -14.96875 10.703125 -14.96875 C 9.753906 -14.96875 8.863281 -14.785156 8.03125 -14.421875 C 7.207031 -14.066406 6.488281 -13.582031 5.875 -12.96875 C 5.257812 -12.363281 4.773438 -11.644531 4.421875 -10.8125 C 4.066406 -9.988281 3.890625 -9.101562 3.890625 -8.15625 Z M 3.890625 -8.15625 "/></g></g></g><g fill="#ffffff" fill-opacity="1"><g transform="translate(290.435522, 200.282228)"><g><path d="M 1.046875 -8.125 C 1.046875 -9.28125 1.265625 -10.367188 1.703125 -11.390625 C 2.140625 -12.410156 2.738281 -13.296875 3.5 -14.046875 C 4.257812 -14.796875 5.144531 -15.390625 6.15625 -15.828125 C 7.175781 -16.265625 8.253906 -16.484375 9.390625 -16.484375 C 10.546875 -16.484375 11.625 -16.265625 12.625 -15.828125 C 13.632812 -15.398438 14.515625 -14.8125 15.265625 -14.0625 C 16.015625 -13.3125 16.609375 -12.429688 17.046875 -11.421875 C 17.484375 -10.421875 17.710938 -9.34375 17.734375 -8.1875 L 17.734375 -0.8125 C 17.734375 -0.570312 17.660156 -0.375 17.515625 -0.21875 C 17.378906 -0.0703125 17.191406 0 16.953125 0 C 16.734375 0 16.554688 -0.0703125 16.421875 -0.21875 C 16.285156 -0.375 16.21875 -0.570312 16.21875 -0.8125 L 16.203125 -3.4375 C 15.828125 -2.894531 15.390625 -2.398438 14.890625 -1.953125 C 14.398438 -1.503906 13.863281 -1.117188 13.28125 -0.796875 C 12.707031 -0.472656 12.09375 -0.21875 11.4375 -0.03125 C 10.78125 0.144531 10.097656 0.234375 9.390625 0.234375 C 8.253906 0.234375 7.175781 0.015625 6.15625 -0.421875 C 5.144531 -0.859375 4.257812 -1.457031 3.5 -2.21875 C 2.738281 -2.976562 2.140625 -3.863281 1.703125 -4.875 C 1.265625 -5.894531 1.046875 -6.976562 1.046875 -8.125 Z M 2.578125 -8.125 C 2.578125 -7.195312 2.753906 -6.316406 3.109375 -5.484375 C 3.460938 -4.660156 3.945312 -3.9375 4.5625 -3.3125 C 5.175781 -2.6875 5.894531 -2.191406 6.71875 -1.828125 C 7.550781 -1.472656 8.441406 -1.296875 9.390625 -1.296875 C 10.359375 -1.296875 11.253906 -1.472656 12.078125 -1.828125 C 12.910156 -2.191406 13.632812 -2.6875 14.25 -3.3125 C 14.863281 -3.9375 15.34375 -4.660156 15.6875 -5.484375 C 16.039062 -6.316406 16.21875 -7.195312 16.21875 -8.125 C 16.21875 -9.0625 16.039062 -9.945312 15.6875 -10.78125 C 15.34375 -11.625 14.863281 -12.351562 14.25 -12.96875 C 13.632812 -13.582031 12.910156 -14.066406 12.078125 -14.421875 C 11.253906 -14.785156 10.359375 -14.96875 9.390625 -14.96875 C 8.453125 -14.96875 7.566406 -14.785156 6.734375 -14.421875 C 5.898438 -14.066406 5.175781 -13.582031 4.5625 -12.96875 C 3.945312 -12.351562 3.460938 -11.625 3.109375 -10.78125 C 2.753906 -9.945312 2.578125 -9.0625 2.578125 -8.125 Z M 2.578125 -8.125 "/></g></g></g><g fill="#ffffff" fill-opacity="1"><g transform="translate(310.241044, 200.282228)"><g><path d="M 7.46875 -1.515625 C 7.707031 -1.515625 7.894531 -1.4375 8.03125 -1.28125 C 8.175781 -1.132812 8.25 -0.957031 8.25 -0.75 C 8.25 -0.53125 8.179688 -0.351562 8.046875 -0.21875 C 7.910156 -0.0820312 7.726562 -0.0078125 7.5 0 C 6.695312 0 5.957031 -0.140625 5.28125 -0.421875 C 4.601562 -0.703125 4.019531 -1.097656 3.53125 -1.609375 C 3.039062 -2.117188 2.660156 -2.738281 2.390625 -3.46875 C 2.117188 -4.195312 1.984375 -5.003906 1.984375 -5.890625 L 1.984375 -21.765625 C 1.984375 -22.003906 2.054688 -22.195312 2.203125 -22.34375 C 2.347656 -22.488281 2.523438 -22.5625 2.734375 -22.5625 C 2.941406 -22.5625 3.117188 -22.488281 3.265625 -22.34375 C 3.421875 -22.195312 3.5 -22.003906 3.5 -21.765625 L 3.5 -5.828125 C 3.507812 -4.484375 3.867188 -3.425781 4.578125 -2.65625 C 5.296875 -1.894531 6.257812 -1.515625 7.46875 -1.515625 Z M 7.46875 -1.515625 "/></g></g></g><g fill="#ffffff" fill-opacity="1"><g transform="translate(319.251503, 200.282228)"><g><path d="M 7.46875 -1.515625 C 7.707031 -1.515625 7.894531 -1.4375 8.03125 -1.28125 C 8.175781 -1.132812 8.25 -0.957031 8.25 -0.75 C 8.25 -0.53125 8.179688 -0.351562 8.046875 -0.21875 C 7.910156 -0.0820312 7.726562 -0.0078125 7.5 0 C 6.695312 0 5.957031 -0.140625 5.28125 -0.421875 C 4.601562 -0.703125 4.019531 -1.097656 3.53125 -1.609375 C 3.039062 -2.117188 2.660156 -2.738281 2.390625 -3.46875 C 2.117188 -4.195312 1.984375 -5.003906 1.984375 -5.890625 L 1.984375 -21.765625 C 1.984375 -22.003906 2.054688 -22.195312 2.203125 -22.34375 C 2.347656 -22.488281 2.523438 -22.5625 2.734375 -22.5625 C 2.941406 -22.5625 3.117188 -22.488281 3.265625 -22.34375 C 3.421875 -22.195312 3.5 -22.003906 3.5 -21.765625 L 3.5 -5.828125 C 3.507812 -4.484375 3.867188 -3.425781 4.578125 -2.65625 C 5.296875 -1.894531 6.257812 -1.515625 7.46875 -1.515625 Z M 7.46875 -1.515625 "/></g></g></g></svg>