<svg xmlns="http://www.w3.org/2000/svg" xmlns:xlink="http://www.w3.org/1999/xlink" width="500" zoomAndPan="magnify" viewBox="0 0 375 374.999991" height="500" preserveAspectRatio="xMidYMid meet" version="1.0"><defs><g/><clipPath id="1cfed8d2d1"><path d="M 37.5 37.5 L 337.5 37.5 L 337.5 337.5 L 37.5 337.5 Z M 37.5 37.5 " clip-rule="nonzero"/></clipPath><clipPath id="a1c0fe14d7"><path d="M 187.5 37.5 C 104.65625 37.5 37.5 104.65625 37.5 187.5 C 37.5 270.34375 104.65625 337.5 187.5 337.5 C 270.34375 337.5 337.5 270.34375 337.5 187.5 C 337.5 104.65625 270.34375 37.5 187.5 37.5 Z M 187.5 37.5 " clip-rule="nonzero"/></clipPath></defs><g clip-path="url(#1cfed8d2d1)"><g clip-path="url(#a1c0fe14d7)"><path fill="#ffffff" d="M 37.5 37.5 L 337.5 37.5 L 337.5 337.5 L 37.5 337.5 Z M 37.5 37.5 " fill-opacity="1" fill-rule="nonzero"/></g></g><g fill="#000000" fill-opacity="1"><g transform="translate(91.347654, 263.999983)"><g><path d="M 162.296875 -124.203125 C 169.097656 -117.398438 174.347656 -109.648438 178.046875 -100.953125 C 181.742188 -92.253906 183.691406 -83.351562 183.890625 -74.25 C 184.097656 -65.144531 182.597656 -56.09375 179.390625 -47.09375 C 176.191406 -38.09375 171.09375 -30.09375 164.09375 -23.09375 L 160.796875 -19.796875 C 153.597656 -13.398438 146.195312 -8.601562 138.59375 -5.40625 C 130 -1.800781 120.601562 -0.0976562 110.40625 -0.296875 C 100.195312 -0.296875 90.894531 -2.09375 82.5 -5.6875 C 74.101562 -9.289062 66.503906 -14.492188 59.703125 -21.296875 C 58.097656 -23.296875 56.84375 -25.394531 55.9375 -27.59375 C 55.039062 -29.800781 54.691406 -32.101562 54.890625 -34.5 C 55.097656 -36.894531 55.703125 -39.242188 56.703125 -41.546875 C 57.703125 -43.847656 59.101562 -45.800781 60.90625 -47.40625 C 64.5 -51.195312 69.046875 -53.09375 74.546875 -53.09375 C 80.046875 -53.09375 84.695312 -51.195312 88.5 -47.40625 C 94.300781 -42 101.601562 -39.296875 110.40625 -39.296875 C 115.195312 -39.097656 119.59375 -39.898438 123.59375 -41.703125 C 127.59375 -43.503906 131.191406 -45.90625 134.390625 -48.90625 C 137.597656 -51.90625 140.050781 -55.503906 141.75 -59.703125 C 143.445312 -63.898438 144.296875 -68.300781 144.296875 -72.90625 L 144.296875 -74.703125 C 144.097656 -78.296875 143.300781 -81.894531 141.90625 -85.5 C 140.300781 -89.5 137.800781 -93.195312 134.40625 -96.59375 C 131.40625 -99.800781 127.851562 -102.203125 123.75 -103.796875 C 119.644531 -105.398438 115.539062 -106.300781 111.4375 -106.5 C 107.34375 -106.695312 103.242188 -105.992188 99.140625 -104.390625 C 95.046875 -102.796875 91.5 -100.5 88.5 -97.5 L 38.40625 -47.40625 C 34.800781 -43.800781 30.195312 -42 24.59375 -42 C 19 -42 14.398438 -43.898438 10.796875 -47.703125 C 6.992188 -51.296875 4.941406 -55.789062 4.640625 -61.1875 C 4.347656 -66.59375 6.101562 -71.097656 9.90625 -74.703125 L 59.40625 -124.203125 C 66.601562 -131.203125 74.597656 -136.5 83.390625 -140.09375 C 92.191406 -143.695312 101.242188 -145.546875 110.546875 -145.640625 C 119.847656 -145.742188 128.945312 -143.992188 137.84375 -140.390625 C 146.75 -136.796875 154.898438 -131.398438 162.296875 -124.203125 Z M 162.296875 -124.203125 "/></g></g></g></svg>